<svg width="447" height="150" viewBox="0 0 447 150" fill="none" xmlns="http://www.w3.org/2000/svg">
<g clip-path="url(#clip0_14_31)">
<path d="M174.407 43.0674C189.407 43.0674 202.068 47.9487 212.39 57.7623C222.712 67.525 227.848 79.8809 227.848 94.7284C227.848 109.474 222.611 121.881 212.187 131.898C201.865 141.813 189.306 146.796 174.407 146.796C159.56 146.796 146.95 141.864 136.628 131.898C126.306 121.983 121.17 109.576 121.17 94.7284C121.17 79.8301 126.306 67.525 136.628 57.7623C147.051 47.9487 159.661 43.0674 174.407 43.0674ZM174.407 130.322C183.916 130.322 191.95 127.017 198.458 120.356C205.119 113.593 208.424 105.05 208.424 94.7284C208.424 84.5589 205.119 76.1182 198.458 69.5081C191.95 62.7962 183.916 59.4911 174.407 59.4911C165 59.4911 156.967 62.7962 150.356 69.4572C143.746 76.1182 140.339 84.5589 140.339 94.7284C140.339 104.898 143.645 113.389 150.306 120.152C157.017 126.915 165 130.322 174.407 130.322Z" fill="#181C24"/>
<path d="M248.746 141V54.9152C248.746 50.5932 250.882 48.4576 255.204 48.4576H260.695C265.017 48.4576 267.153 50.5932 267.153 54.9152V66.2542L266.543 73.6779H266.949C269.441 66.2542 273.407 60.0508 278.899 55.0678C284.39 50.1356 290.492 47.644 297.305 47.644C301.475 47.644 303.56 49.7796 303.56 54.1017V59.5932C303.56 63.9152 301.221 66.0508 296.492 66.0508C287.339 66.0508 280.272 70.1695 275.187 78.3559C270.204 86.4407 267.763 95.8474 267.763 106.525V140.949C267.763 145.271 265.627 147.407 261.305 147.407H255.255C250.933 147.458 248.746 145.322 248.746 141Z" fill="#181C24"/>
<path d="M331.322 28.6776H324.661C320.339 28.6776 318.203 26.542 318.203 22.2199V15.7623C318.203 11.4403 320.339 9.30469 324.661 9.30469H331.322C335.644 9.30469 337.779 11.4403 337.779 15.7623V22.2199C337.779 26.542 335.644 28.6776 331.322 28.6776ZM318.407 141V54.9149C318.407 50.5928 320.542 48.4572 324.864 48.4572H330.915C335.237 48.4572 337.373 50.5928 337.373 54.9149V141C337.373 145.322 335.237 147.457 330.915 147.457H324.864C320.593 147.457 318.407 145.322 318.407 141Z" fill="#181C24"/>
<path d="M364.983 141V15.7623C364.983 11.4403 367.119 9.30469 371.441 9.30469H377.492C381.661 9.30469 383.746 11.4403 383.746 15.7623V84.6606H398.034L422.085 52.5759C423.763 49.8301 426.305 48.4572 429.712 48.4572H436.933C439.526 48.4572 441.255 49.2199 442.017 50.7962C442.78 52.3725 442.424 54.203 440.848 56.2877L413.441 92.0843V92.4911L445.119 139.627C446.543 141.864 446.848 143.695 445.983 145.22C445.119 146.745 443.39 147.457 440.797 147.457H432.966C429.712 147.457 427.17 145.983 425.339 142.932L398.339 101.033H383.644V140.949C383.644 145.271 381.56 147.406 377.39 147.406H371.339C367.17 147.457 364.983 145.322 364.983 141Z" fill="#181C24"/>
<path d="M101.492 80.593H94.4749C91.4241 80.593 88.9834 78.1015 88.9834 75.1015V14.6439C88.9834 11.593 91.4749 9.15234 94.4749 9.15234H101.492C104.543 9.15234 106.983 11.6439 106.983 14.6439V75.0507C106.983 78.1015 104.543 80.593 101.492 80.593Z" fill="#3A30BA"/>
<path d="M53.1864 146.746C23.8475 146.746 0 123.254 0 94.4237C0 65.5423 23.8475 42.0508 53.1864 42.0508H57.1017C60.1525 42.0508 62.6441 44.5423 62.6441 47.5932V53.7457C62.6441 56.7965 60.1525 59.2881 57.1017 59.2881H53.1864C33.3559 59.2881 17.1864 75.0508 17.1864 94.4745C17.1864 113.898 33.3559 129.661 53.1864 129.661C71.3898 129.661 86.4915 116.39 88.8814 99.2542C89.2373 96.5593 91.5254 94.5254 94.2712 94.5254H100.576C103.881 94.5254 106.475 97.4237 106.068 100.678C102.966 126.559 80.4407 146.746 53.1864 146.746Z" fill="#181C24"/>
</g>
<defs>
<clipPath id="clip0_14_31">
<rect width="446.949" height="150" fill="white"/>
</clipPath>
</defs>
</svg>
