<svg width="516" height="150" viewBox="0 0 516 150" fill="none" xmlns="http://www.w3.org/2000/svg">
<g clip-path="url(#clip0_7_824)">
<path fill-rule="evenodd" clip-rule="evenodd" d="M66.373 5.11225C73.0583 -1.70408 83.9921 -1.70408 90.6738 5.11225L151.764 67.3923C158.442 74.201 158.442 85.3569 151.764 92.1732L109.037 135.73C105.912 138.916 101.593 140.885 96.827 140.885H60.2272C55.8855 140.885 51.9235 139.254 48.8839 136.561L5.31602 92.139C-1.36185 85.3265 -1.36185 74.1783 5.31602 67.3619L66.373 5.11225ZM88.9735 118.809L82.8797 125.022C82.4333 125.477 81.8158 125.758 81.135 125.758H75.9154C75.2942 125.758 74.7324 125.526 74.2934 125.14L68.0805 118.801C67.1319 117.834 67.1319 116.245 68.0805 115.27L76.7897 106.39C77.7458 105.415 79.3083 105.415 80.2571 106.39L88.9735 115.274C89.9297 116.245 89.9297 117.834 88.9735 118.809ZM88.9735 81.5485L64.6059 106.394C64.1558 106.849 63.5418 107.13 62.8648 107.13H57.6416C57.0239 107.13 56.4548 106.898 56.0232 106.511L49.8067 100.177C48.8543 99.2019 48.8543 97.6088 49.8067 96.6414L76.7897 69.1296C77.7458 68.1586 79.3083 68.1586 80.2607 69.1296L88.9735 78.0132C89.9297 78.9842 89.9297 80.5775 88.9735 81.5485ZM88.9735 44.2881L46.3356 87.7616C45.8818 88.2168 45.2679 88.4975 44.5909 88.4975H39.3712C38.7537 88.4975 38.1846 88.2661 37.753 87.8792L31.5327 81.5409C30.5803 80.5737 30.5803 78.9804 31.5327 78.0056L76.7897 31.8654C77.7458 30.8906 79.3009 30.8906 80.2571 31.8654L88.9735 40.7528C89.9297 41.7239 89.9297 43.3171 88.9735 44.2881Z" fill="#26A943"/>
<path d="M447.268 57.2266V31.0765H428.778V125.845H447.268V59.9994L469.936 121.597C470.46 122.921 470.713 124.381 470.713 125.845C470.713 130.094 468.373 133.936 463.557 134.467C459.913 134.603 456.272 134.201 452.757 133.803V149.34C456.528 149.738 460.3 150 464.081 150C476.699 150 483.21 145.486 487.249 134.467L515.368 57.2266H496.231L481.52 104.213H481.264L466.027 57.2266H447.268Z" fill="#2E2E2E"/>
<path d="M230.623 31.6075C227.502 31.4749 224.117 31.0765 220.864 31.0765C205.761 31.0765 198.342 39.7059 198.342 51.9124V57.2266H187.274V69.8313H198.342V125.845H216.824V69.8313H229.585V57.2266H216.824V53.1072C216.824 47.4023 218.778 45.2743 223.851 45.2743C226.068 45.2743 228.409 45.4147 230.623 45.6802V31.6075Z" fill="#2E2E2E"/>
<path fill-rule="evenodd" clip-rule="evenodd" d="M424.739 31.0765V125.845H407.16V117.079H406.904C402.606 124.517 395.186 127.7 386.464 127.7C368.009 127.7 358.154 113.119 356.513 96.1142H308.097C308.621 108.192 314.213 113.498 324.633 113.498C332.045 113.498 338.041 108.848 339.21 104.611H355.486C350.271 120.937 339.21 127.7 323.979 127.7C304.302 127.7 291.568 114.917 289.824 96.1142H242.222C242.744 108.192 248.339 113.498 258.753 113.498C266.169 113.498 272.16 108.848 273.328 104.611H289.6C284.399 120.937 273.328 127.7 258.104 127.7C236.876 127.7 223.729 112.834 223.729 91.5965C223.729 71.0262 237.659 55.368 258.104 55.368C276.646 55.368 287.513 68.2344 290.222 84.3289C293.101 67.4492 306.033 55.368 323.979 55.368C343.439 55.368 354.445 69.5354 356.439 86.7338C357.856 69.9679 367.804 55.368 386.077 55.368C394.013 55.368 401.826 58.8159 405.989 65.583H406.257V31.0765H424.739ZM257.583 69.5658C245.601 69.5658 242.614 78.8591 242.222 84.1695H272.291C270.597 74.6069 266.565 69.5658 257.583 69.5658ZM308.097 84.1695C308.491 78.8591 311.482 69.5658 323.459 69.5658C332.439 69.5658 336.48 74.6069 338.168 84.1695H308.097ZM406.904 91.3348C406.904 80.1867 402.998 69.5658 391.018 69.5658C378.921 69.5658 374.75 80.3194 374.75 91.4676C374.75 102.221 379.564 113.498 391.018 113.498C403.132 113.498 406.904 102.616 406.904 91.3348Z" fill="#2E2E2E"/>
</g>
<defs>
<clipPath id="clip0_7_824">
<rect width="515.06" height="150" fill="white" transform="translate(0.307617)"/>
</clipPath>
</defs>
</svg>
