<svg width="681" height="156" viewBox="0 0 681 156" fill="none" xmlns="http://www.w3.org/2000/svg">
<path d="M291.563 56.2684C289.25 53.0926 286.051 50.6705 282.366 49.3074C278.583 47.7886 274.885 47.0293 271.271 47.0293C266.654 47.0293 262.449 47.873 258.671 49.5605C254.959 51.1979 251.614 53.5651 248.836 56.5215C246.101 59.5529 243.963 63.0742 242.536 66.8996C241.078 71.0457 240.353 75.4145 240.394 79.8091C240.394 84.7028 241.107 89.1747 242.536 93.2247C243.855 97.083 245.908 100.649 248.583 103.725C251.279 106.601 254.541 108.886 258.165 110.437C261.863 112.04 266.021 112.842 270.643 112.842C275.433 112.842 279.676 111.914 283.374 110.058C287.068 108.117 290.054 105.586 292.322 102.464L305.054 111.45C301.165 116.379 296.207 120.361 290.555 123.094C284.841 125.794 278.161 127.144 270.516 127.144C263.541 127.144 257.115 126.005 251.232 123.722C245.638 121.496 240.54 118.185 236.232 113.981C231.996 109.706 228.656 104.629 226.407 99.0466C224.054 93.2247 222.877 86.8122 222.877 79.8091C222.877 72.6372 224.096 66.1824 226.533 60.4449C229.055 54.623 232.458 49.6871 236.743 45.6324C241.201 41.5299 246.426 38.3485 252.118 36.2714C258 34.0778 264.39 32.981 271.276 32.981C274.135 32.981 277.116 33.2763 280.229 33.8669C283.336 34.3732 286.322 35.2169 289.177 36.398C292.037 37.4949 294.722 38.8824 297.24 40.5699C299.762 42.2574 301.904 44.2871 303.671 46.6496L291.563 56.2684ZM314.415 29.1841H329.541V124.865H314.415V29.1841ZM390.488 88.4153C390.488 86.4747 390.198 84.6184 389.607 82.8466C389.126 81.1159 388.265 79.5142 387.085 78.159C385.842 76.7645 384.287 75.6822 382.548 74.9997C380.785 74.1559 378.685 73.734 376.248 73.734C371.71 73.734 367.843 75.1262 364.651 77.9059C361.543 80.6106 359.823 84.1122 359.485 88.4153H390.488ZM405.615 95.2497V97.2747C405.615 97.9497 405.573 98.6247 405.488 99.2997H359.485C359.654 101.493 360.198 103.519 361.126 105.375C362.129 107.147 363.432 108.703 365.031 110.058C366.624 111.323 368.434 112.336 370.449 113.095C372.465 113.854 374.565 114.234 376.754 114.234C380.532 114.234 383.724 113.559 386.331 112.209C388.903 110.804 391.105 108.809 392.757 106.387L402.84 114.487C396.877 122.587 388.22 126.637 376.876 126.637C372.174 126.637 367.843 125.92 363.891 124.481C360.078 123.044 356.572 120.897 353.56 118.153C350.641 115.364 348.324 112.006 346.754 108.286C345.16 104.32 344.363 99.8482 344.363 94.87C344.363 89.9763 345.16 85.5419 346.754 81.5809C348.437 77.5309 350.705 74.1137 353.56 71.3293C356.425 68.4559 359.859 66.2138 363.643 64.7481C367.69 63.1262 372.014 62.3096 376.374 62.3434C380.574 62.3434 384.437 63.0606 387.971 64.4949C391.523 65.8037 394.718 67.9281 397.299 70.6965C399.901 73.3965 401.917 76.8137 403.346 80.9481C404.86 84.9981 405.615 89.7606 405.615 95.245V95.2497ZM457.084 117.14H456.709C455.195 119.845 452.757 122.081 449.396 123.853C446.035 125.54 442.21 126.384 437.926 126.384C435.489 126.384 432.929 126.047 430.239 125.372C427.645 124.786 425.171 123.759 422.926 122.334C420.709 120.781 418.824 118.802 417.381 116.512C415.951 114.065 415.238 111.07 415.238 107.526C415.238 102.97 416.499 99.3419 419.021 96.6419C421.628 93.9419 424.946 91.8747 428.978 90.4403C433.009 89.006 437.462 88.0778 442.337 87.656C447.152 87.1572 451.99 86.9036 456.831 86.8966V85.3778C456.831 81.5809 455.448 78.7966 452.673 77.0247C449.982 75.1684 446.748 74.2403 442.97 74.2403C439.792 74.2365 436.651 74.9275 433.768 76.2653C430.824 77.6153 428.387 79.2606 426.456 81.2012L418.642 71.9622C422.057 68.7723 426.09 66.3156 430.492 64.7434C434.899 63.1651 439.544 62.3532 444.226 62.3434C449.607 62.3434 454.018 63.1028 457.464 64.6215C460.993 66.1403 463.764 68.1231 465.779 70.57C467.795 73.0168 469.182 75.759 469.942 78.7966C470.781 81.8341 471.203 84.8716 471.203 87.9091V124.865H457.079V117.14H457.084ZM456.831 97.1482H453.428C450.99 97.1482 448.431 97.2747 445.74 97.5232C443.212 97.6633 440.712 98.133 438.306 98.9201C436.037 99.5951 434.143 100.608 432.634 101.958C431.12 103.223 430.365 104.995 430.365 107.273C430.365 108.708 430.66 109.931 431.246 110.944C431.917 111.872 432.76 112.631 433.768 113.222C434.776 113.812 435.91 114.234 437.171 114.487C438.432 114.74 439.693 114.862 440.949 114.862C446.162 114.862 450.109 113.475 452.8 110.69C455.49 107.906 456.831 104.109 456.831 99.2997V97.1435V97.1482ZM488.823 64.1153H503.317V74.2403H503.57C505.15 70.817 507.582 67.855 510.629 65.634C513.653 63.4403 517.183 62.3434 521.214 62.3434C521.804 62.3434 522.433 62.3856 523.103 62.4699C523.778 62.4699 524.368 62.5543 524.87 62.7231V76.645C523.998 76.4181 523.112 76.2489 522.222 76.1387C521.551 76.0548 520.881 76.0126 520.206 76.0122C516.761 76.0122 513.986 76.645 511.886 77.9106C509.926 79.0436 508.248 80.6003 506.973 82.4669C505.848 84.1178 505.037 85.9609 504.578 87.9044C504.156 89.7653 503.945 91.2419 503.945 92.3388V124.865H488.823V64.1153ZM550.108 29.1841V71.8356H550.487C551.247 70.8231 552.212 69.7684 553.389 68.6715C554.561 67.5746 555.948 66.5621 557.547 65.634C559.38 64.644 561.33 63.879 563.345 63.3559C565.759 62.649 568.262 62.3077 570.78 62.3434C575.064 62.3434 579.016 63.1871 582.63 64.8746C586.239 66.4778 589.352 68.7137 591.958 71.5778C594.611 74.529 596.664 77.9678 598.005 81.7028C599.458 85.7209 600.184 89.965 600.147 94.2372C600.175 98.5488 599.448 102.832 598.005 106.894C596.72 110.667 594.709 114.151 592.08 117.145C589.478 120.076 586.3 122.444 582.751 124.106C579.142 125.794 575.022 126.637 570.4 126.637C566.209 126.657 562.065 125.705 558.306 123.853C554.678 122.061 551.65 119.245 549.606 115.753H549.353V124.865H534.986V29.1841H550.112H550.108ZM584.772 94.2372C584.772 91.8747 584.397 89.5497 583.637 87.2763C583 84.9855 581.931 82.8372 580.487 80.9481C579.039 79.0773 577.187 77.5623 575.064 76.5184C572.88 75.3372 570.32 74.7465 567.376 74.7465C564.606 74.7465 562.126 75.3372 559.942 76.5184C557.758 77.6997 555.864 79.2184 554.27 81.0747C552.737 82.9656 551.542 85.1064 550.74 87.4028C549.995 89.6922 549.615 92.0833 549.606 94.4903C549.606 96.8529 549.981 99.2154 550.74 101.578C551.584 103.856 552.756 105.923 554.27 107.779C555.864 109.636 557.758 111.154 559.942 112.336C562.126 113.433 564.606 113.976 567.376 113.976C570.32 113.976 572.88 113.39 575.064 112.209C577.173 111.092 579.025 109.539 580.487 107.653C581.912 105.797 582.962 103.687 583.637 101.325C584.383 99.0358 584.762 96.6447 584.772 94.2372ZM614.992 64.1153H630.114V124.865H614.992V64.1153ZM612.845 43.4855C612.845 41.0386 613.727 38.9292 615.489 37.1574C617.341 35.3013 619.652 34.3732 622.427 34.3732C625.192 34.3732 627.508 35.2591 629.355 37.0308C631.286 38.7183 632.252 40.8699 632.252 43.4855C632.252 46.1011 631.286 48.2949 629.355 50.0668C627.508 51.7543 625.197 52.598 622.422 52.598C619.652 52.598 617.341 51.7074 615.489 49.9402C614.645 49.0918 613.975 48.0844 613.525 46.9768C613.07 45.8691 612.841 44.6827 612.845 43.4855ZM639.766 76.2653V64.1153H650.359V46.523H665.228V64.1153H680.346V76.2653H665.224V104.484C665.224 107.189 665.688 109.425 666.611 111.197C667.619 112.969 669.799 113.854 673.164 113.854C674.172 113.854 675.264 113.77 676.441 113.601C677.613 113.348 678.667 113.011 679.591 112.589L680.097 124.486C678.546 125.042 676.942 125.424 675.306 125.625C673.46 125.962 671.697 126.131 670.01 126.131C665.978 126.131 662.702 125.583 660.18 124.486C657.663 123.305 655.642 121.744 654.133 119.798C652.689 117.74 651.658 115.421 651.105 112.969C650.589 110.215 650.341 107.418 650.355 104.615V76.2653H639.761H639.766Z" fill="black"/>
<g filter="url(#filter0_f_12_446)">
<path d="M112.486 153H42.8954L40.0548 152.977C28.3041 152.786 23.6302 151.355 18.9209 148.826C13.8493 146.102 9.86908 142.106 7.15675 137.013L6.595 135.919C4.3358 131.337 3.09745 126.279 3.00553 114.398L3 43.0609C3 29.1307 4.44441 24.0793 7.15675 18.9868C9.86908 13.8942 13.8493 9.89749 18.9209 7.17395L20.0102 6.6099C24.5737 4.34133 29.6102 3.09783 41.4428 3.00553L112.486 3C126.359 3 131.389 4.45041 136.461 7.17395C141.532 9.89749 145.513 13.8942 148.225 18.9868L148.786 20.0806C151.046 24.663 152.284 29.7203 152.376 41.6017L152.382 112.939L152.36 115.791C152.169 127.591 150.743 132.284 148.225 137.013C145.513 142.106 141.532 146.102 136.461 148.826L135.371 149.39C130.626 151.749 125.368 153 112.486 153Z" fill="#C4D3E0" fill-opacity="0.2"/>
</g>
<path d="M152.379 78.0002V112.94C152.379 126.869 150.935 131.921 148.222 137.013C145.51 142.106 141.53 146.103 136.458 148.826C131.387 151.55 126.356 153 112.484 153H77.6885V78.0002H152.379Z" fill="url(#paint0_linear_12_446)"/>
<path d="M77.6885 3H112.484C126.356 3 131.387 4.45041 136.458 7.17395C141.53 9.89749 145.51 13.8942 148.222 18.9868C150.935 24.0793 152.379 29.1307 152.379 43.0604V77.9998H77.6885V3Z" fill="url(#paint1_linear_12_446)"/>
<path d="M42.8954 3H77.6909V153H42.8954C29.023 153 23.9925 151.549 18.9209 148.826C13.8493 146.102 9.86908 142.106 7.15675 137.013C4.44441 131.92 3 126.869 3 112.939V43.0609C3 29.1307 4.44441 24.0793 7.15675 18.9868C9.86908 13.8942 13.8493 9.89749 18.9209 7.17395C23.9925 4.45041 29.023 3 42.8954 3Z" fill="url(#paint2_linear_12_446)"/>
<defs>
<filter id="filter0_f_12_446" x="0.28576" y="0.28576" width="154.81" height="155.428" filterUnits="userSpaceOnUse" color-interpolation-filters="sRGB">
<feFlood flood-opacity="0" result="BackgroundImageFix"/>
<feBlend mode="normal" in="SourceGraphic" in2="BackgroundImageFix" result="shape"/>
<feGaussianBlur stdDeviation="1.35712" result="effect1_foregroundBlur_12_446"/>
</filter>
<linearGradient id="paint0_linear_12_446" x1="115.034" y1="78.0002" x2="152.626" y2="152.876" gradientUnits="userSpaceOnUse">
<stop stop-color="#DEF2FE"/>
<stop offset="1" stop-color="#DBF1FE"/>
</linearGradient>
<linearGradient id="paint1_linear_12_446" x1="77.6885" y1="3" x2="115.281" y2="77.8755" gradientUnits="userSpaceOnUse">
<stop stop-color="#57BCFD"/>
<stop offset="1" stop-color="#51B5FD"/>
</linearGradient>
<linearGradient id="paint2_linear_12_446" x1="31.0091" y1="3" x2="94.9165" y2="130.289" gradientUnits="userSpaceOnUse">
<stop stop-color="#1CA7FD"/>
<stop offset="1" stop-color="#148CFC"/>
</linearGradient>
</defs>
</svg>
