<svg width="330" height="150" viewBox="0 0 330 150" fill="none" xmlns="http://www.w3.org/2000/svg">
<path d="M160.688 30.5277C168.678 30.5277 175.155 24.0308 175.155 16.0163C175.155 8.00188 168.678 1.50488 160.688 1.50488C152.698 1.50488 146.221 8.00188 146.221 16.0163C146.221 24.0308 152.698 30.5277 160.688 30.5277Z" fill="#FF7E61"/>
<path d="M38.474 77.2971L75.5855 40.0716C76.2245 39.4307 75.7704 38.32 74.8617 38.32H44.8767C44.6071 38.32 44.3517 38.434 44.153 38.6192L24.8304 58.0007V7.08984C24.8304 6.36354 24.0921 5.86513 23.4248 6.13569L2.21407 14.7514C1.83075 14.9081 1.5752 15.2783 1.5752 15.7055V115.975C1.5752 116.915 2.34185 117.684 3.27887 117.684H23.1267C24.0637 117.684 24.8304 116.915 24.8304 115.975V96.5935L45.5866 117.4C45.7715 117.584 46.0411 117.698 46.3107 117.698L76.3096 117.684C77.2182 117.684 77.6727 116.573 77.0337 115.933L38.474 77.2971Z" fill="#3C4151"/>
<path d="M150.759 117.684H170.607C171.544 117.684 172.311 116.915 172.311 115.975V40.0429C172.311 39.1031 171.544 38.334 170.607 38.334H150.759C149.822 38.334 149.056 39.1031 149.056 40.0429V115.989C149.07 116.929 149.822 117.684 150.759 117.684Z" fill="#3C4151"/>
<path fill-rule="evenodd" clip-rule="evenodd" d="M291.398 38.42C310.905 39.7588 326.707 55.6089 328.07 75.1614C329.674 98.3739 311.388 117.685 288.616 117.699C282.795 117.699 277.272 116.417 272.303 114.153V139.858C272.303 140.555 271.891 141.182 271.238 141.439L250.453 149.883C249.786 150.154 249.048 149.669 249.048 148.929V78.0095H249.062C249.062 55.1529 268.285 36.825 291.398 38.42ZM272.303 78.0095C272.303 87.0384 279.6 94.3723 288.616 94.3723C297.617 94.3723 304.914 87.0384 304.914 78.0095C304.914 68.981 297.617 61.6468 288.616 61.6468C279.6 61.6468 272.303 68.981 272.303 78.0095Z" fill="#3C4151"/>
<path d="M211.51 57.4451C211.581 57.4451 211.666 57.4451 211.737 57.4594C215.556 57.303 218.992 59.7521 221.789 63.5831C222.243 64.2097 223.067 64.4231 223.777 64.1385L239.763 57.6874C240.643 57.3315 241.069 56.3201 240.7 55.4374C236.682 45.7249 224.458 38.334 211.496 38.334C194.573 38.334 180.83 49.1287 180.83 62.4439C180.83 69.5786 184.975 75.7732 190.669 79.8176C195.779 83.4491 201.885 85.7989 207.904 87.3652C208.003 87.3937 208.103 87.4189 208.202 87.4436C208.301 87.4684 208.401 87.4935 208.5 87.522C216.621 89.3306 217.785 91.4809 217.785 93.603C217.785 96.3656 214.449 98.6014 210.346 98.6014C206.101 98.8717 202.339 95.9524 199.385 91.5094C198.946 90.84 198.079 90.5981 197.341 90.897L181.54 97.3909C180.674 97.7467 180.276 98.7154 180.603 99.5981C185.132 111.902 197.341 117.712 210.346 117.712C227.269 117.712 241.012 106.932 241.012 93.603C241.012 90.6975 240.359 87.9206 239.152 85.3432C238.002 82.8795 235.007 77.6389 227.255 74.0074C225.323 73.1066 221.896 71.9077 218.297 70.6485C213.646 69.021 208.705 67.2922 206.328 65.9756C204.88 65.178 204.057 63.8535 204.057 62.4439C204.057 59.6812 207.407 57.4451 211.51 57.4451Z" fill="#3C4151"/>
<path d="M140.864 39.744C141.134 39.0746 140.637 38.334 139.913 38.334H124.935C103.142 38.334 85.4668 56.064 85.4668 77.9235V115.975C85.4668 116.915 86.2333 117.684 87.1704 117.684H107.018C107.955 117.684 108.707 116.929 108.707 115.989V77.9235C108.707 68.9235 115.976 61.632 124.949 61.632H131.224C131.636 61.632 132.005 61.3901 132.161 61.0054L140.864 39.744Z" fill="#3C4151"/>
</svg>
