<svg width="582" height="150" viewBox="0 0 582 150" fill="none" xmlns="http://www.w3.org/2000/svg">
<path d="M151.953 113.726V0.16333H169.597V44.9342C175.153 36.6586 183.487 32.5192 194.597 32.5163C204.074 32.5163 211.399 35.3211 216.574 40.9307C221.749 46.5404 224.338 54.3564 224.338 64.3788V113.726H206.694V66.8301C206.694 53.8682 200.92 47.3867 189.373 47.385C183.598 47.385 178.859 49.1279 175.158 52.6138C171.456 56.0997 169.603 61.0018 169.6 67.3201V113.724L151.953 113.726Z" fill="#323232"/>
<path d="M307.724 103.924C299.881 111.768 290.023 115.689 278.149 115.689C266.276 115.689 256.391 111.768 248.492 103.924C240.594 96.0807 236.645 86.112 236.646 74.0176C236.646 61.9243 240.595 51.9848 248.492 44.1997C256.389 36.4127 266.275 32.5184 278.149 32.5166C290.024 32.5149 299.882 36.4092 307.724 44.1997C315.568 51.9895 319.49 61.929 319.489 74.0176C319.489 86.107 315.567 96.0757 307.724 103.924ZM261.401 93.9557C265.592 98.8576 271.175 101.309 278.149 101.309C285.124 101.309 290.707 98.8576 294.897 93.9557C299.089 89.0539 301.186 82.4082 301.188 74.0176C301.188 65.7401 299.064 59.1497 294.816 54.247C290.568 49.3444 285.012 46.8933 278.149 46.8939C271.177 46.8939 265.594 49.3176 261.401 54.165C257.208 59.0124 255.111 65.6289 255.11 74.0145C255.11 82.4082 257.207 89.0551 261.401 93.9557Z" fill="#323232"/>
<path d="M360.331 115.686C344.099 115.686 335.982 106.971 335.982 89.5418V49.3462H323.73V34.4776H336.475L340.561 11.116H353.794V34.4776H385.33V49.3462H353.795V89.0525C353.795 96.3518 356.464 100.001 361.802 100.001C366.811 100.001 371.332 95.425 375.364 86.2743L389.09 93.3012C382.334 108.226 372.748 115.687 360.331 115.686Z" fill="#323232"/>
<path d="M394.762 150C386.919 150 380.437 147.821 375.317 143.464L381.854 129.575C385.014 133.277 388.445 135.129 392.148 135.133C397.049 135.133 399.5 131.974 399.5 125.656V34.4774H417.144V125.979C417.144 134.476 415.047 140.603 410.853 144.361C406.659 148.119 401.296 149.998 394.762 150ZM408.324 21.0777C405.423 21.1761 402.602 20.1184 400.48 18.1373C399.46 17.1757 398.656 16.0083 398.121 14.7126C397.586 13.4168 397.332 12.0221 397.377 10.6209C397.337 9.20825 397.594 7.80294 398.128 6.49469C398.662 5.18641 399.464 4.00388 400.48 3.02255C402.614 1.07792 405.396 0 408.283 0C411.169 0 413.952 1.07792 416.086 3.02255C417.124 3.99167 417.945 5.17005 418.494 6.47988C419.043 7.78963 419.309 9.20106 419.272 10.6209C419.297 12.0151 419.027 13.3988 418.477 14.6804C417.928 15.9621 417.113 17.1124 416.086 18.0553C415.054 19.0452 413.838 19.8218 412.506 20.3404C411.174 20.8591 409.753 21.1096 408.324 21.0777Z" fill="#323232"/>
<path d="M460.971 115.688C451.927 115.688 444.601 113.427 438.993 108.907C433.384 104.386 430.58 98.3151 430.579 90.6919C430.579 83.7207 433.492 77.8101 439.32 72.9594C445.148 68.1094 452.474 65.6857 461.297 65.6888C470.339 65.6888 477.964 68.5757 484.173 74.3494V64.7076C484.173 59.0453 482.729 54.6608 479.842 51.5542C476.955 48.4477 472.843 46.8953 467.507 46.8971C456.722 46.8971 450.023 52.3979 447.408 63.3994L431.231 59.9686C433.407 51.4724 437.71 44.7733 444.14 39.8712C450.57 34.9691 458.577 32.5181 468.159 32.5181C478.618 32.5181 486.87 35.2688 492.915 40.7702C498.96 46.2716 501.982 54.3049 501.984 64.8701V113.727H484.826V103.758C479.051 111.712 471.099 115.689 460.971 115.688ZM464.234 102.616C472.079 102.616 478.724 98.6944 484.172 90.8519V88.3982C478.724 81.8626 472.078 78.5944 464.234 78.5951C459.66 78.5951 455.955 79.7126 453.119 81.9476C451.778 82.9351 450.693 84.2288 449.954 85.7213C449.215 87.2132 448.844 88.8607 448.87 90.5251C448.827 92.2076 449.182 93.8763 449.906 95.3957C450.63 96.9144 451.704 98.2413 453.037 99.2669C455.821 101.5 459.555 102.616 464.238 102.616H464.234Z" fill="#323232"/>
<path d="M519.153 113.726V34.4771H536.31V48.2024C540.666 38.1812 548.182 33.1702 558.86 33.1697C565.175 33.1697 570.404 35.2393 574.546 39.3786C578.688 43.5179 580.756 49.0734 580.753 56.0452C580.709 60.2178 579.992 64.3564 578.629 68.3001L562.453 66.6664C562.785 64.5007 563.002 62.319 563.105 60.1307C563.105 51.9609 559.729 47.8757 552.976 47.8751C548.4 47.8751 544.56 50.2988 541.456 55.1462C538.353 59.9936 536.8 66.3939 536.798 74.347V113.726H519.153Z" fill="#323232"/>
<path d="M41.7511 46.6024C54.9012 39.2969 72.9112 29.2892 72.9112 0.16333H51.1033C51.1033 16.4594 43.1697 20.8669 31.1602 27.5389C18.0102 34.8471 0 44.8504 0 73.9794H21.8081C21.8081 57.6821 29.7417 53.2746 41.7511 46.6024Z" fill="#FF3C00"/>
<path d="M79.4969 39.9094C79.4969 56.2063 71.5631 60.6138 59.5538 67.2851C46.4072 74.5907 28.3936 84.5969 28.3936 113.725H50.2007C50.2007 97.4282 58.1344 93.0207 70.1437 86.3488C83.2937 79.0432 101.303 69.0382 101.303 39.9094H79.4969Z" fill="#FF3C00"/>
</svg>
